<svg xmlns="http://www.w3.org/2000/svg" version="1.1" xmlns:xlink="http://www.w3.org/1999/xlink" xmlns:svgjs="http://svgjs.dev/svgjs" width="1000" height="1000" viewBox="0 0 1000 1000"><g transform="matrix(1,0,0,1,-0.14221556886212738,-0.14221556886229791)"><svg viewBox="0 0 334 334" data-background-color="#096a2e" preserveAspectRatio="xMidYMid meet" height="1000" width="1000" xmlns="http://www.w3.org/2000/svg" xmlns:xlink="http://www.w3.org/1999/xlink"><g id="tight-bounds" transform="matrix(1,0,0,1,0.04749999999998522,0.04750000000001364)"><svg viewBox="0 0 333.90454557049503 333.90454557049503" height="333.90454557049503" width="333.90454557049503"><g><svg></svg></g><g><svg viewBox="0 0 333.90454557049503 333.90454557049503" height="333.90454557049503" width="333.90454557049503"><g><path d="M0 166.952c0-92.205 74.747-166.952 166.952-166.952 92.205 0 166.952 74.747 166.953 166.952 0 92.205-74.747 166.952-166.953 166.953-92.205 0-166.952-74.747-166.952-166.953zM166.952 330.191c90.155 0 163.239-73.085 163.239-163.239 0-90.155-73.085-163.239-163.239-163.239-90.155 0-163.239 73.085-163.239 163.239 0 90.155 73.085 163.239 163.239 163.239z" data-fill-palette-color="tertiary" fill="#c9efc7" stroke="transparent"></path><ellipse rx="160.27418187383762" ry="160.27418187383762" cx="166.95227278524752" cy="166.95227278524752" fill="#c9efc7" stroke="transparent" stroke-width="0" fill-opacity="1" data-fill-palette-color="tertiary"></ellipse></g><g transform="matrix(1,0,0,1,107.86026647931172,71.17305217166896)"><svg viewBox="0 0 118.1840126118716 191.55844122715712" height="191.55844122715712" width="118.1840126118716"><g><svg viewBox="0 0 118.1840126118716 191.55844122715712" height="191.55844122715712" width="118.1840126118716"><g><svg viewBox="0 0 213.1584412271571 345.49765093847554" height="191.55844122715712" width="118.1840126118716"><g transform="matrix(1,0,0,1,0,207.81232830863908)"><svg viewBox="0 0 213.1584412271571 137.68532262983643" height="137.68532262983643" width="213.1584412271571"><g id="textblocktransform"><svg viewBox="0 0 213.1584412271571 137.68532262983643" height="137.68532262983643" width="213.1584412271571" id="textblock"><g><svg viewBox="0 0 213.1584412271571 74.2608839280787" height="74.2608839280787" width="213.1584412271571"><g transform="matrix(1,0,0,1,0,0)"><svg width="213.1584412271571" viewBox="-12.5 -31.25 89.69999694824219 31.25" height="74.2608839280787" data-palette-color="#096a2e"><path d="M32.55-19.05L31.25-11.8 21.75-11.8 21.1-8 32.75-8 31.35 0 10.2 0 15.7-31.25 36.6-31.25 34-23.25 23.75-23.25 23.05-19.05 32.55-19.05ZM9.1-2.4L8.7-0.15-12.5-2.4 9.1-2.4ZM10.8-12.05L10.4-9.8-10.8-12.05 10.8-12.05ZM11.65-16.85L11.25-14.6-9.95-16.85 11.65-16.85ZM12.5-21.65L12.1-19.4-9.1-21.65 12.5-21.65ZM13.3-26.45L12.95-24.2-8.25-26.45 13.3-26.45ZM9.95-7.25L9.55-5-11.65-7.25 9.95-7.25ZM14.15-31.25L13.75-29-7.4-31.25 14.15-31.25ZM52-31.25L65.3-31.25Q71.75-31.25 74.47-28.98 77.2-26.7 77.2-21.6L77.2-21.6Q77.2-19 76.6-15.6L76.6-15.6Q75.1-7.2 71.47-3.6 67.85 0 59.8 0L59.8 0 46.5 0 52-31.25ZM64-23.25L64-23.25 60.05-23.25 57.4-8 61.35-8Q63.3-8 64.25-8.47 65.2-8.95 65.5-10.65L65.5-10.65 67.25-20.6Q67.3-20.9 67.3-21.4L67.3-21.4Q67.3-22.55 66.5-22.9 65.7-23.25 64-23.25ZM45.4-2.4L45-0.15 23.8-2.4 45.4-2.4ZM47.1-12.05L46.7-9.8 25.5-12.05 47.1-12.05ZM47.95-16.85L47.55-14.6 26.35-16.85 47.95-16.85ZM48.8-21.65L48.4-19.4 27.2-21.65 48.8-21.65ZM49.6-26.45L49.25-24.2 28.05-26.45 49.6-26.45ZM46.25-7.25L45.85-5 24.65-7.25 46.25-7.25ZM50.45-31.25L50.05-29 28.9-31.25 50.45-31.25Z" opacity="1" transform="matrix(1,0,0,1,0,0)" fill="#096a2e" class="undefined-text-0" data-fill-palette-color="quaternary" id="text-0"></path></svg></g></svg></g><g transform="matrix(1,0,0,1,0,91.7920963622838)"><svg viewBox="0 0 213.1584412271571 45.893226267552635" height="45.893226267552635" width="213.1584412271571"><g transform="matrix(1,0,0,1,0,0)"><svg width="213.1584412271571" viewBox="4.5 -35.79999923706055 166.27999877929688 35.88225555419922" height="45.893226267552635" data-palette-color="#096a2e"><path d="M28.5-0.2L28.5-0.2Q21.75-0.1 7.25-0.35L7.25-0.35Q6.25-0.35 5.53-1.1 4.8-1.85 4.8-2.85L4.8-2.85Q4.5-3.45 4.5-4.1L4.5-4.1Q4.6-7.5 4.6-13.9 4.6-20.3 4.65-22.6L4.65-22.6Q4.65-23.45 4.6-25.58 4.55-27.7 4.6-29.53 4.65-31.35 4.9-32.95L4.9-32.95Q5-33.65 5.5-34.2 6-34.75 6.7-34.95L6.7-34.95Q7.35-35.55 8.3-35.6L8.3-35.6Q12-35.7 18.88-35.75 25.75-35.8 28.25-35.8L28.25-35.8Q29.3-35.8 30.03-35.08 30.75-34.35 30.75-33.3 30.75-32.25 30.03-31.53 29.3-30.8 28.25-30.8L28.25-30.8Q25.6-30.8 19.33-30.75 13.05-30.7 9.65-30.65L9.65-30.65Q9.5-29.95 9.58-26.83 9.65-23.7 9.65-22.5L9.65-22.5 9.65-20.45Q12.1-20.6 14.88-20.6 17.65-20.6 21.18-20.55 24.7-20.5 26.4-20.5L26.4-20.5Q27.45-20.5 28.18-19.78 28.9-19.05 28.9-18 28.9-16.95 28.18-16.23 27.45-15.5 26.4-15.5L26.4-15.5Q24.65-15.5 21.13-15.55 17.6-15.6 14.85-15.6 12.1-15.6 9.6-15.45L9.6-15.45Q9.6-8.35 9.55-5.3L9.55-5.3Q21.75-5.1 28.4-5.2L28.4-5.2Q29.45-5.2 30.2-4.5 30.95-3.8 30.95-2.75 30.95-1.7 30.25-0.95 29.55-0.2 28.5-0.2L28.5-0.2ZM168.28 0L168.28 0Q167.48 0 166.83-0.45 166.18-0.9 165.93-2.15L165.93-2.15Q163.78-0.6 161.43-0.15L161.43-0.15Q158.18 0.45 155.48-0.5 152.78-1.45 150.93-3.65L150.93-3.65Q147.58-7.55 147.63-13.55L147.63-13.55Q147.68-18.95 151.13-22.85L151.13-22.85Q155.28-27.5 162.03-26.3L162.03-26.3Q164.33-25.9 165.53-25.25L165.53-25.25 165.43-33.25Q165.43-34.3 166.15-35.05 166.88-35.8 167.9-35.8 168.93-35.8 169.68-35.08 170.43-34.35 170.43-33.35L170.43-33.35Q170.78-10.55 170.78-2.5L170.78-2.5Q170.78-1.45 170.05-0.73 169.33 0 168.28 0L168.28 0ZM160.53-5.05L160.53-5.05Q161.48-5.25 162.53-5.75 163.58-6.25 164-6.58 164.43-6.9 164.65-7.15 164.88-7.4 165.18-7.73 165.48-8.05 165.73-8.75L165.73-8.75Q165.73-15.1 165.63-18.85L165.63-18.85Q165.58-18.85 165.53-18.9L165.53-18.9Q163.43-20.7 163.43-20.75L163.43-20.75Q162.88-21.1 161.13-21.4L161.13-21.4Q157.13-22.1 154.88-19.5L154.88-19.5Q152.63-17.05 152.63-13.55L152.63-13.55Q152.58-9.4 154.73-6.88 156.88-4.35 160.53-5.05L160.53-5.05Z" opacity="1" transform="matrix(1,0,0,1,0,0)" fill="#096a2e" class="undefined-text-1" data-fill-palette-color="quaternary" id="text-1"></path></svg></g></svg></g></svg></g></svg></g><g transform="matrix(1,0,0,1,42.6566582495109,0)"><svg viewBox="0 0 127.84512472813532 190.28111587443397" height="190.28111587443397" width="127.84512472813532"><g><svg xmlns="http://www.w3.org/2000/svg" data-name="Layer 1" viewBox="21 0 86 128" x="0" y="0" height="190.28111587443397" width="127.84512472813532" class="icon-icon-0" data-fill-palette-color="quaternary" id="icon-0"><path d="M54.16 78.26a6 6 0 0 1-2.81 3.85 2 2 0 0 0 1.89 3.52A10.26 10.26 0 0 0 57.86 80a18.24 18.24 0 0 0 5.83 1 17.1 17.1 0 0 0 6.38-1.23 10.2 10.2 0 0 0 4.69 5.88 2 2 0 0 0 2.69-0.81 2 2 0 0 0-0.8-2.71S74 80.59 73.8 77.89a2 2 0 0 0 0-0.22l0.13-0.09c5.24-4 9.48-10.55 11.64-17.9a23 23 0 0 0 0.95-6.48c0-11.62-10.08-21.07-22.48-21.07A23.19 23.19 0 0 0 48.45 38a20.28 20.28 0 0 0-6.92 15.21 33.88 33.88 0 0 0 8.79 22A18.34 18.34 0 0 0 54.16 78.26ZM51.12 41A19.19 19.19 0 0 1 64 36.13c10.19 0 18.48 7.66 18.48 17.07a19 19 0 0 1-0.79 5.35C79.77 65.12 76 70.89 71.45 74.41c-5.33 4.1-13.33 3.23-18.22-2a30.1 30.1 0 0 1-7.71-19.22A16.33 16.33 0 0 1 51.12 41Z" fill="#096a2e" data-fill-palette-color="quaternary"></path><path d="M63 54.25a1.09 1.09 0 0 1 1.91 0A7.85 7.85 0 1 0 65.8 50a4.7 4.7 0 0 0-3.61 0A7.85 7.85 0 1 0 63 54.25Zm9.73-4.47a3.85 3.85 0 1 1-3.85 3.85A3.86 3.86 0 0 1 72.78 49.79Zm-21.4 3.85a3.85 3.85 0 1 1 3.85 3.85A3.86 3.86 0 0 1 51.37 53.64Z" fill="#096a2e" data-fill-palette-color="quaternary"></path><path d="M66.16 65.88L65.08 67a2 2 0 0 1-2.82 0l-1.08-1.08a2 2 0 0 0-2.83 2.83l1.08 1.08a6 6 0 0 0 8.48 0L69 68.7a2 2 0 0 0-2.83-2.83Z" fill="#096a2e" data-fill-palette-color="quaternary"></path><path d="M29 116a4.12 4.12 0 0 0 4.22 4H41a2 2 0 0 0 0-4H33.22c-0.14 0-0.22-0.06-0.22 0V102a2 2 0 0 0-4 0Z" fill="#096a2e" data-fill-palette-color="quaternary"></path><path d="M87 120h7.78A4.12 4.12 0 0 0 99 116V102a2 2 0 0 0-4 0l0 13.92a0.33 0.33 0 0 1-0.24 0.08H87a2 2 0 0 0 0 4Z" fill="#096a2e" data-fill-palette-color="quaternary"></path><path d="M103 16H84V11a2 2 0 0 0-2-2H74.93A10.17 10.17 0 0 0 64.84 0H63.16A10.17 10.17 0 0 0 53.07 9H46a2 2 0 0 0-2 2v5H25a4 4 0 0 0-4 4V124a4 4 0 0 0 4 4h78a4 4 0 0 0 4-4V93.33a2 2 0 0 0-4 0L103 124H25L25 20H44v5a2 2 0 0 0 2 2H82a2 2 0 0 0 2-2V20h19V83.33a2 2 0 0 0 4 0V20A4 4 0 0 0 103 16ZM57 10.16A6.16 6.16 0 0 1 63.16 4h1.69A6.16 6.16 0 0 1 71 10.16V14H57ZM80 23H48V13h5v3a2 2 0 0 0 2 2H73a2 2 0 0 0 2-2V13h5Z" fill="#096a2e" data-fill-palette-color="quaternary"></path><path d="M41 28a2 2 0 0 0 0-4H33.22A4.12 4.12 0 0 0 29 28V42a2 2 0 0 0 4 0l0-13.92a0.33 0.33 0 0 1 0.24-0.08Z" fill="#096a2e" data-fill-palette-color="quaternary"></path><path d="M99 28a4.12 4.12 0 0 0-4.22-4H87a2 2 0 0 0 0 4h7.78c0.14 0 0.21 0.05 0.22 0V42a2 2 0 0 0 4 0Z" fill="#096a2e" data-fill-palette-color="quaternary"></path><path d="M45 104H83a2 2 0 0 0 0-4H45a2 2 0 0 0 0 4Z" fill="#096a2e" data-fill-palette-color="quaternary"></path><path d="M45 92a2 2 0 0 0 0 4H83a2 2 0 0 0 0-4Z" fill="#096a2e" data-fill-palette-color="quaternary"></path></svg></g></svg></g><g></g></svg></g></svg></g></svg></g></svg></g><defs></defs></svg><rect width="333.90454557049503" height="333.90454557049503" fill="none" stroke="none" visibility="hidden"></rect></g></svg></g></svg>